<?xml version="1.0" encoding="UTF-8" standalone="yes"?>
<!DOCTYPE svg PUBLIC "-//W3C//DTD SVG 1.1//EN" "http://www.w3.org/Graphics/SVG/1.1/DTD/svg11.dtd">
<svg xmlns="http://www.w3.org/2000/svg" xmlns:xlink="http://www.w3.org/1999/xlink" xmlns:serif="http://www.serif.com/" width="100%" height="100%" viewBox="0 0 32 32" version="1.1" xml:space="preserve" style="fill-rule:evenodd;clip-rule:evenodd;stroke-linejoin:round;stroke-miterlimit:2;zoom: 1;"><g transform="matrix(1,0,0,1,0,-1020.36)"><rect x="0.126" y="1020.49" width="32" height="32" style="fill:orangered; "></rect><g><g transform="matrix(1,0,0,1,2.36865,1028.99)"><text x="0px" y="0px" style="font-family:'LucidaGrande', 'Lucida Grande', sans-serif;font-weight:500;font-size:7.5px;fill:white;">T3L<tspan x="13.596px" y="0px">U</tspan>H</text></g><g transform="matrix(1,0,0,1,2.36865,1038.36)"><text x="5.076649px" style="font-family:'LucidaGrande', 'Lucida Grande', sans-serif;font-weight:500;font-size:7.5px;fill:white;" font-family="Helvetica" y="-0.228164px" text-anchor="middle" font-size="32px">FIS</text></g></g><rect x="3" y="1042.26" width="7.5" height="7.5" style="fill:rgb(255,135,0);"></rect><g transform="matrix(1,0,0,1,0,1020.36)"><path d="M3.014,29.342L3.014,21.892L10.464,21.892L10.464,29.342L3.014,29.342Z" style="fill:rgb(0,128,0);fill-rule:nonzero;"></path><path d="M3.014,29.342 L3.014,21.892 L10.464,21.892 L10.464,29.342 L3.014,29.342 " style="fill:white; fill-rule:nonzero; "></path></g></g></svg>